<svg width="30" height="34" viewBox="0 0 30 34" fill="none" xmlns="http://www.w3.org/2000/svg">
<path d="M15.0082 0C19.4748 0 23.1469 3.50985 23.3333 7.95721H23.2898C23.295 8.08648 23.2702 8.21521 23.2172 8.33333H23.4774C25.5058 8.33333 27.6297 9.73918 28.4814 13.133L28.5739 13.5335L29.8554 23.8579C30.7776 30.4429 27.1749 33.2121 22.2603 33.3294L21.9308 33.3333H8.11421C3.11963 33.3333 -0.729093 31.5133 0.117135 24.3059L0.174841 23.8579L1.47107 13.5335C2.11023 9.87864 4.25602 8.43708 6.32353 8.33877L6.55285 8.33333H6.68315C6.66117 8.20891 6.66117 8.08163 6.68315 7.95721C6.86954 3.50985 10.5417 0 15.0082 0ZM10.1617 13.8822C9.34816 13.8822 8.68868 14.5609 8.68868 15.3982C8.68868 16.2355 9.34816 16.9143 10.1617 16.9143C10.9752 16.9143 11.6346 16.2355 11.6346 15.3982L11.6232 15.208C11.5323 14.4605 10.9126 13.8822 10.1617 13.8822ZM19.8097 13.8822C18.9962 13.8822 18.3367 14.5609 18.3367 15.3982C18.3367 16.2355 18.9962 16.9143 19.8097 16.9143C20.6232 16.9143 21.2827 16.2355 21.2827 15.3982C21.2827 14.5609 20.6232 13.8822 19.8097 13.8822ZM14.9429 2.17064C11.7361 2.17064 9.1364 4.76137 9.1364 7.95721C9.15837 8.08163 9.15837 8.20891 9.1364 8.33333H20.822C20.7756 8.21324 20.7511 8.08588 20.7494 7.95721C20.7494 4.76137 18.1498 2.17064 14.9429 2.17064Z" fill="#F9EFFB"/>
</svg>
