<svg width="27" height="27" viewBox="0 0 27 27" fill="none" xmlns="http://www.w3.org/2000/svg">
<path fill-rule="evenodd" clip-rule="evenodd" d="M25.9999 6.1024C25.9999 8.91984 23.7149 11.2048 20.8975 11.2048C18.08 11.2048 15.7963 8.91984 15.7963 6.1024C15.7963 3.28495 18.08 1 20.8975 1C23.7149 1 25.9999 3.28495 25.9999 6.1024Z" stroke="white" stroke-width="2" stroke-linecap="round" stroke-linejoin="round"/>
<path fill-rule="evenodd" clip-rule="evenodd" d="M11.2035 6.1024C11.2035 8.91984 8.91985 11.2048 6.10115 11.2048C3.28496 11.2048 1 8.91984 1 6.1024C1 3.28495 3.28496 1 6.10115 1C8.91985 1 11.2035 3.28495 11.2035 6.1024Z" stroke="white" stroke-width="2" stroke-linecap="round" stroke-linejoin="round"/>
<path fill-rule="evenodd" clip-rule="evenodd" d="M25.9999 20.8075C25.9999 23.625 23.7149 25.9087 20.8975 25.9087C18.08 25.9087 15.7963 23.625 15.7963 20.8075C15.7963 17.9901 18.08 15.7051 20.8975 15.7051C23.7149 15.7051 25.9999 17.9901 25.9999 20.8075Z" stroke="white" stroke-width="2" stroke-linecap="round" stroke-linejoin="round"/>
<path fill-rule="evenodd" clip-rule="evenodd" d="M11.2035 20.8075C11.2035 23.625 8.91984 25.9087 6.10115 25.9087C3.28495 25.9087 1 23.625 1 20.8075C1 17.9901 3.28495 15.7051 6.10115 15.7051C8.91984 15.7051 11.2035 17.9901 11.2035 20.8075Z" stroke="white" stroke-width="2" stroke-linecap="round" stroke-linejoin="round"/>
</svg>
