<svg width="18" height="23" viewBox="0 0 18 23" fill="none" xmlns="http://www.w3.org/2000/svg">
<path fill-rule="evenodd" clip-rule="evenodd" d="M18 18.4016C18 22.147 12.8636 22.58 9.00114 22.58L8.72473 22.5798C6.26387 22.5738 0 22.4184 0 18.3789C0 14.7098 4.92995 14.2195 8.76305 14.201L9.27753 14.2007C11.7382 14.2067 18 14.362 18 18.4016ZM9.00114 15.905C4.15909 15.905 1.70455 16.7368 1.70455 18.3789C1.70455 20.0357 4.15909 20.8755 9.00114 20.8755C13.842 20.8755 16.2955 20.0436 16.2955 18.4016C16.2955 16.7448 13.842 15.905 9.00114 15.905ZM9.00114 0C12.3284 0 15.0341 2.70682 15.0341 6.03409C15.0341 9.36136 12.3284 12.067 9.00114 12.067H8.96477C5.64432 12.0568 2.95455 9.34886 2.96587 6.03068C2.96587 2.70682 5.67273 0 9.00114 0ZM9.00114 1.62273C6.56818 1.62273 4.58861 3.60114 4.58861 6.03409C4.58068 8.45909 6.54545 10.4364 8.96818 10.4455L9.00114 11.2568V10.4455C11.433 10.4455 13.4114 8.46591 13.4114 6.03409C13.4114 3.60114 11.433 1.62273 9.00114 1.62273Z" fill="white"/>
</svg>
