<svg width="30" height="31" viewBox="0 0 30 31" fill="none" xmlns="http://www.w3.org/2000/svg">
<path fill-rule="evenodd" clip-rule="evenodd" d="M14.4177 0C22.3675 0 28.834 6.46643 28.834 14.4162C28.834 18.1669 27.3946 21.5878 25.0391 24.1551L29.6739 28.7802C30.1077 29.214 30.1092 29.9157 29.6754 30.3495C29.4593 30.5686 29.1736 30.6766 28.8893 30.6766C28.6066 30.6766 28.3223 30.5686 28.1047 30.3524L23.414 25.6748C20.9464 27.6509 17.8177 28.834 14.4177 28.834C6.46791 28.834 0 22.366 0 14.4162C0 6.46643 6.46791 0 14.4177 0ZM14.4177 2.22062C7.69221 2.22062 2.22062 7.69073 2.22062 14.4162C2.22062 21.1417 7.69221 26.6133 14.4177 26.6133C21.1417 26.6133 26.6133 21.1417 26.6133 14.4162C26.6133 7.69073 21.1417 2.22062 14.4177 2.22062Z" fill="#F9EFFB"/>
</svg>
