<svg viewBox="0 0 690.05 794.71" xmlns="http://www.w3.org/2000/svg"><path d="m0 451.84h690.05v.35h-690.05z" fill="#e6e6e6"/><path d="m582.86 460.72h32.09v.35h-32.09z" fill="#e6e6e6"/><path d="m345.81 468.21h152.4v.35h-152.4z" fill="#e6e6e6"/><path d="m265.67 468.39h14.95v.35h-14.95z" fill="#e6e6e6"/><path d="m107.65 464.25h51.84v.35h-51.84z" fill="#e6e6e6"/><path d="m539.16 460.72h30.33v.35h-30.33z" fill="#e6e6e6"/><path d="m71.28 464.25h25.1v.35h-25.1z" fill="#e6e6e6"/><path d="m7181.56 7213.1h-266.48a7.89 7.89 0 0 1 -7.87-7.88v-374.6a7.89 7.89 0 0 1 7.87-7.82h266.48a7.88 7.88 0 0 1 7.88 7.88v374.54a7.88 7.88 0 0 1 -7.88 7.88zm-266.48-390a7.54 7.54 0 0 0 -7.53 7.54v374.6a7.54 7.54 0 0 0 7.53 7.53h266.48a7.54 7.54 0 0 0 7.53-7.53v-374.6a7.54 7.54 0 0 0 -7.53-7.54z" fill="#e6e6e6" transform="translate(-6854.48 -6822.8)"/><path d="m7480.09 7213.1h-266.5a7.9 7.9 0 0 1 -7.88-7.88v-374.6a7.9 7.9 0 0 1 7.88-7.82h266.5a7.89 7.89 0 0 1 7.85 7.82v374.6a7.88 7.88 0 0 1 -7.85 7.88zm-266.5-390a7.54 7.54 0 0 0 -7.53 7.54v374.6a7.54 7.54 0 0 0 7.53 7.53h266.5a7.54 7.54 0 0 0 7.53-7.53v-374.6a7.54 7.54 0 0 0 -7.53-7.54z" fill="#e6e6e6" transform="translate(-6854.48 -6822.8)"/><path d="m446.56 25.6h104.29v181.58h-104.29z" fill="#e6e6e6"/><path d="m440.93 25.6h104.29v181.58h-104.29z" fill="#f5f5f5"/><path d="m451.03 34.13h84.06v164.54h-84.06z" fill="#fafafa"/><path d="m451.03 34.13h4.26v164.54h-4.26z" fill="#e6e6e6"/><path d="m445.11 147.5h95.93v11.44h-95.93z" fill="#f5f5f5"/><path d="m269.31 25.6h104.29v181.58h-104.29z" fill="#e6e6e6"/><path d="m263.68 25.6h104.29v181.58h-104.29z" fill="#f5f5f5"/><path d="m273.8 34.13h84.06v164.54h-84.06z" fill="#fafafa"/><path d="m273.78 34.12h4.26v164.54h-4.26z" fill="#e6e6e6"/><path d="m267.86 147.5h95.93v11.44h-95.93z" fill="#f5f5f5"/><path d="m92.08 25.6h104.29v181.58h-104.29z" fill="#e6e6e6"/><path d="m86.45 25.6h104.29v181.58h-104.29z" fill="#f5f5f5"/><path d="m96.55 34.12h84.06v164.54h-84.06z" fill="#fafafa"/><path d="m96.55 34.13h4.26v164.54h-4.26z" fill="#e6e6e6"/><path d="m90.63 147.5h95.93v11.44h-95.93z" fill="#f5f5f5"/><path d="m7047.69 7142.32c-18.81 2.6-30.45-38.28 11-72.89-2.13 40.06 21.82 68.37-11 72.89z" fill="#e6e6e6" transform="translate(-6854.48 -6822.8)"/><path d="m7033.89 7195.86c-27.27-19.12-8.61-85.9 75.78-81-36.49 49.14-28.22 114.31-75.78 81z" fill="#e0e0e0" transform="translate(-6854.48 -6822.8)"/><path d="m7043.55 7195.43c18.12-19.51-7.67-68.63-72.88-50.69 36.79 32.26 41.26 84.7 72.88 50.69z" fill="#e0e0e0" transform="translate(-6854.48 -6822.8)"/><path d="m7020.28 7167c-6.27-7.64-13.66-16.22-11.87-25.3s6.28-15.83 2.76-25.49c-4.28-11.6-3.45-25.42 3.78-24.26s15.34 9.66 15.18 20.85c-.12 10.87 6.9 14.35 13.67 20.13s9.15 14.25 10.35 22.53c2.1 13.15 19.14 10.67 23.67 22.08 4.68 11-4.65 25.74-19.57 29.12s-25.55 5.52-35.72-6.16c-10.34-12.34 7.02-22.62-2.25-33.5z" fill="#f5f5f5" transform="translate(-6854.48 -6822.8)"/><path d="m217.13 451.84h-56.04l-4.23-76.34h64.49z" fill="#ebebeb"/><path d="m152.68 373.94h72.86v8.23h-72.86z" fill="#ebebeb"/><path d="m547.54 277.98h37.7v163.5h-37.7z" fill="#ebebeb"/><path d="m252.07 441.48h325.92v10.36h-325.92z" fill="#ebebeb"/><path d="m244.84 277.98h302.7v163.5h-302.7z" fill="#f5f5f5"/><path d="m259.67 298.1h273.05v53.63h-273.05z" fill="#ebebeb"/><path d="m259.67 367.73h273.05v53.63h-273.05z" fill="#ebebeb"/><path d="m7165.73 7151.39h169.88a3.69 3.69 0 0 0 3.67-3.67 3.67 3.67 0 0 0 -3.67-3.68h-169.88a3.67 3.67 0 0 0 -3.67 3.68 3.69 3.69 0 0 0 3.67 3.67z" fill="#f5f5f5" transform="translate(-6854.48 -6822.8)"/><path d="m7165.73 7221h169.88a3.69 3.69 0 0 0 3.67-3.67 3.68 3.68 0 0 0 -3.67-3.67h-169.88a3.67 3.67 0 0 0 -3.67 3.67 3.69 3.69 0 0 0 3.67 3.67z" fill="#f5f5f5" transform="translate(-6854.48 -6822.8)"/><path d="m7318.45 7076.92s43.2 40.94 68.84-.16c0 0-6.82-13.21-14-14.34s-7.48 11.42-13.8 7.55-13.7-17.15-17.73-10.07-9.57-3-15.6-3.58-7.71 20.6-7.71 20.6z" fill="#f5f5f5" transform="translate(-6854.48 -6822.8)"/><path d="m7390 7074.09s-.94 26.69-37.35 26.69-37.34-26.69-37.34-26.69z" fill="#ebebeb" transform="translate(-6854.48 -6822.8)"/><path d="m7205.86 7060.18h21v40.6h-61.56a40.6 40.6 0 0 1 40.56-40.6z" fill="#f5f5f5" transform="translate(-6854.48 -6822.8)"/><path d="m372.35 237.38h19.34v40.6h-19.34z" fill="#e6e6e6"/><ellipse cx="345.02" cy="498.55" fill="#f5f5f5" rx="267.59" ry="15.62"/><path d="m7155.34 7019.83-.91 1.38c-.28.4-.57.76-.85 1.13-.56.74-1.16 1.38-1.75 2.14a52.07 52.07 0 0 1 -3.71 4 76.85 76.85 0 0 1 -8.28 6.9 72.59 72.59 0 0 1 -9.18 5.63c-1.61.79-3.21 1.6-4.88 2.27l-2.5 1-.71.26a10.25 10.25 0 0 1 -3.72.65 10.29 10.29 0 0 1 -4.71-1.17 13.67 13.67 0 0 1 -3.19-2.31 23.74 23.74 0 0 1 -3.85-5 52.77 52.77 0 0 1 -4.4-9.94 110.05 110.05 0 0 1 -4.64-20l5.77-1.27c1.05 3 2.13 6.15 3.31 9.15s2.38 6 3.76 8.85a50.75 50.75 0 0 0 4.47 7.85 13.1 13.1 0 0 0 2.44 2.76 3.39 3.39 0 0 0 .9.53l.45-.22 2.06-1c1.38-.66 2.69-1.38 4-2.18a80.37 80.37 0 0 0 7.57-5.12 73.85 73.85 0 0 0 6.8-6.07c1.08-1.05 2.1-2.17 3.08-3.3.48-.56 1-1.13 1.38-1.7l.66-.84.54-.72z" fill="#b97964" transform="translate(-6854.48 -6822.8)"/><path d="m284.15 196.43 7 16.78-5.07 3.16-7.87-15.22z" fill="#263238"/><path d="m7158.43 7005.1c-11.42-.15-23 14.3-23.3 14.66l9 21.22s20.08-16.3 21.09-22.67c1.07-6.64.44-13.11-6.79-13.21z" fill="#4a00c6" transform="translate(-6854.48 -6822.8)"/><path d="m7158.43 7005.1c-11.42-.15-23 14.3-23.3 14.66l9 21.22s20.08-16.3 21.09-22.67c1.07-6.64.44-13.11-6.79-13.21z" opacity=".3" transform="translate(-6854.48 -6822.8)"/><path d="m7102.89 7003.28-7.89-6.14-1.6 12.09s7.67 3 11.76.4l-.11-2.21a5.62 5.62 0 0 0 -2.16-4.14z" fill="#b97964" transform="translate(-6854.48 -6822.8)"/><path d="m230.01 173.73.49 9.17 8.46 3.52 1.6-12.09z" fill="#b97964"/><path d="m7257.46 7002.3 12.2-3.05-8.52-8.71s-7.91 3.23-6 10.13z" fill="#b97964" transform="translate(-6854.48 -6822.8)"/><path d="m421.25 174.28-1.01-9.58-13.65 3.04 8.53 8.71z" fill="#b97964"/><path d="m363.2 486.44-11.36 1.09-9.48-26.8 11.36-1.1z" fill="#b97964"/><path d="m484.79 430.09-8.37 8.12-21.5-16.78 8.38-8.12z" fill="#b97964"/><path d="m7328.48 7259.44 6.44-11.41a.91.91 0 0 1 1.14-.42l9.77 3.78a1.89 1.89 0 0 1 1 2.47l-.09.18c-2.31 3.95-3.62 5.73-6.45 10.75-1.74 3.1-5.13 10.18-7.54 14.44s-6.74 2.11-6.12.12c2.76-8.92 2.29-13.91 1.54-17.85a3.06 3.06 0 0 1 .31-2.06z" fill="#263238" transform="translate(-6854.48 -6822.8)"/><path d="m7204.05 7306.86h13.81a1.16 1.16 0 0 1 1.09.84l3 10.95a1.71 1.71 0 0 1 -1.15 2.12 1.88 1.88 0 0 1 -.53.07c-4.84-.08-7.2-.37-13.29-.37-3.74 0-15.93.4-21.1.4s-6.12-5.12-4-5.52c9.39-2.09 17.31-4.94 20.19-7.68a2.89 2.89 0 0 1 1.98-.81z" fill="#263238" transform="translate(-6854.48 -6822.8)"/><path d="m342.38 460.73 4.87 13.83h11.75l-5.27-14.93z" fill="#a76755"/><path d="m463.31 413.31-8.37 8.13 11.08 8.64 8.37-8.12z" fill="#a76755"/><path d="m7147.32 7008.79s-4.69 3.57 26.92 65.27l45.08-14.56c-6.68-18.09-10.35-29.39-13.8-69.87a138.82 138.82 0 0 0 -19.82 3.66 163.29 163.29 0 0 0 -20.47 6.61c-8.61 3.7-17.91 8.89-17.91 8.89z" fill="#4a00c6" transform="translate(-6854.48 -6822.8)"/><path d="m7147.32 7008.79s-4.69 3.57 26.92 65.27l45.08-14.56c-6.68-18.09-10.35-29.39-13.8-69.87a138.82 138.82 0 0 0 -19.82 3.66 163.29 163.29 0 0 0 -20.47 6.61c-8.61 3.7-17.91 8.89-17.91 8.89z" opacity=".3" transform="translate(-6854.48 -6822.8)"/><path d="m7176.16 6970.89c.83 7 3.44 19.49 9.47 22.4 0 0 .35 7.26-11.88 11.2-13.46 4.35-8.59-4.59-8.59-4.59 6.78-4.14 4.82-9.52 1.89-14.22z" fill="#b97964" transform="translate(-6854.48 -6822.8)"/><path d="m7153.54 7005.45c3.33-1.73 7.57-3.83 11.62-5.52a150.86 150.86 0 0 1 20.54-6.64c3.93-1.08 7.91-1.88 11.26-2.45.32.94-.63 3.37-3 6.73-7.38 6.12-23.13 14.09-34.73 13.8-5.05-1.89-6.32-3.9-5.69-5.92z" fill="#b97964" transform="translate(-6854.48 -6822.8)"/><path d="m7194 6997.57a83.77 83.77 0 0 1 -17.78 17.59 88.11 88.11 0 0 1 -17-3.79c11.57.29 27.32-7.68 34.78-13.8z" fill="#263238" transform="translate(-6854.48 -6822.8)"/><path d="m7172.45 6976.92-5.4 8.74a20.79 20.79 0 0 1 1.81 3.43c2.68-1.31 6.09-5.19 5.44-8.28a12.55 12.55 0 0 0 -1.85-3.89z" fill="#a76755" transform="translate(-6854.48 -6822.8)"/><path d="m7178.9 6957.94c.69 11.55 1.24 16.43-3.84 23-7.63 9.91-22 8.28-26.11-2.87-3.72-10-4.23-27.21 6.44-33.12a15.8 15.8 0 0 1 23.51 13z" fill="#b97964" transform="translate(-6854.48 -6822.8)"/><circle cx="326.46" cy="109.71" fill="#263238" r="21.31"/><path d="m7175.61 6941.77c4.39 2.9 6.57 7.34 4.87 9.92s-6.64 2.33-11-.56-6.57-7.35-4.87-9.93 6.6-2.33 11 .57z" fill="#4a00c6" transform="translate(-6854.48 -6822.8)"/><path d="m7175.61 6941.77c4.39 2.9 6.57 7.34 4.87 9.92s-6.64 2.33-11-.56-6.57-7.35-4.87-9.93 6.6-2.33 11 .57z" fill="#fafafa" opacity=".6" transform="translate(-6854.48 -6822.8)"/><path d="m7173.28 6965.82c1.14-2.65-2.84-10.51-2-13.45-2.29-2.14-25.52 5.42-23.64-.1 1.79-5.3 7.45-12.32 20.37-9.38 13.8 3.14 15 15.08 13.46 18.89a84.61 84.61 0 0 1 -3.74 7.77z" fill="#263238" transform="translate(-6854.48 -6822.8)"/><path d="m7181.93 6968.07a8.5 8.5 0 0 1 -2.37 6c-2.09 2.11-4.6.59-5.25-2.14-.59-2.46-.2-6.53 2.47-7.61a3.78 3.78 0 0 1 5.15 3.74z" fill="#b97964" transform="translate(-6854.48 -6822.8)"/><path d="m7174.24 7074.06s-20.89 101.94-9.24 135.52c12.11 34.95 31.84 83.75 31.84 83.75l18.42-1s-15.18-61.67-18.92-89.52c-5.12-38.39 16.81-141.21 16.81-141.21z" fill="#4a00c6" transform="translate(-6854.48 -6822.8)"/><path d="m7174.24 7074.06s-20.89 101.94-9.24 135.52c12.11 34.95 31.84 83.75 31.84 83.75l18.42-1s-15.18-61.67-18.92-89.52c-5.12-38.39 16.81-141.21 16.81-141.21z" fill="#fafafa" opacity=".6" transform="translate(-6854.48 -6822.8)"/><path d="m362.24 469.92-21.33 1.23-3.42-8.39 23.52-2.44z" fill="#4a00c6"/><path d="m362.24 469.92-21.33 1.23-3.42-8.39 23.52-2.44z" opacity=".2"/><path d="m7196.34 7081.9c-3.2 11.84-.52 29.59 5.52 42 1.48-9.66 3.05-19 4.54-27.39-3.1-5.97-6.53-11.29-10.06-14.61z" fill="#4a00c6" transform="translate(-6854.48 -6822.8)"/><path d="m7196.34 7081.9c-3.2 11.84-.52 29.59 5.52 42 1.48-9.66 3.05-19 4.54-27.39-3.1-5.97-6.53-11.29-10.06-14.61z" fill="#fafafa" opacity=".4" transform="translate(-6854.48 -6822.8)"/><path d="m7186.14 7070.21s31 74.16 51.57 114.87c16.57 32.93 78 67.39 78 67.39l11-11.7s-45.93-40.79-57.38-63.12c-36.66-71.47-29.12-102.69-50-118.15z" fill="#4a00c6" transform="translate(-6854.48 -6822.8)"/><path d="m7186.14 7070.21s31 74.16 51.57 114.87c16.57 32.93 78 67.39 78 67.39l11-11.7s-45.93-40.79-57.38-63.12c-36.66-71.47-29.12-102.69-50-118.15z" fill="#fafafa" opacity=".6" transform="translate(-6854.48 -6822.8)"/><path d="m474.35 416.29-15.18 16.14-9.6-5.05 17.48-17.84z" fill="#4a00c6"/><path d="m474.35 416.29-15.18 16.14-9.6-5.05 17.48-17.84z" opacity=".2"/><path d="m7219.14 7056.65 3.32 3.38c.27.26 0 .7-.52.87l-47.27 15.18a.79.79 0 0 1 -.92-.21l-1.7-3.89c-.12-.28.15-.62.59-.77l45.64-14.73a.89.89 0 0 1 .86.17z" fill="#263238" transform="translate(-6854.48 -6822.8)"/><path d="m7214.68 7063.73 1.22-.39c.24-.08.38-.27.33-.41l-2.27-5.07c0-.14-.33-.19-.56-.12l-1.23.4a.33.33 0 0 0 -.32.41l2.27 5.05c.04.16.29.21.56.13z" fill="#4a00c6" transform="translate(-6854.48 -6822.8)"/><path d="m7214.68 7063.73 1.22-.39c.24-.08.38-.27.33-.41l-2.27-5.07c0-.14-.33-.19-.56-.12l-1.23.4a.33.33 0 0 0 -.32.41l2.27 5.05c.04.16.29.21.56.13z" fill="#fafafa" opacity=".6" transform="translate(-6854.48 -6822.8)"/><path d="m7178.25 7075.49 1.22-.4c.24-.09.39-.27.32-.42l-2.26-5.05c-.07-.15-.32-.21-.57-.12l-1.23.38c-.23.09-.38.27-.31.42l2.26 5.05c.07.15.32.21.57.14z" fill="#4a00c6" transform="translate(-6854.48 -6822.8)"/><path d="m7178.25 7075.49 1.22-.4c.24-.09.39-.27.32-.42l-2.26-5.05c-.07-.15-.32-.21-.57-.12l-1.23.38c-.23.09-.38.27-.31.42l2.26 5.05c.07.15.32.21.57.14z" fill="#fafafa" opacity=".6" transform="translate(-6854.48 -6822.8)"/><path d="m7196.45 7069.61 1.21-.4a.35.35 0 0 0 .34-.42l-2.27-5.05a.45.45 0 0 0 -.56-.12l-1.23.4c-.24.07-.39.26-.32.4l2.26 5.06a.48.48 0 0 0 .57.13z" fill="#4a00c6" transform="translate(-6854.48 -6822.8)"/><path d="m7196.45 7069.61 1.21-.4a.35.35 0 0 0 .34-.42l-2.27-5.05a.45.45 0 0 0 -.56-.12l-1.23.4c-.24.07-.39.26-.32.4l2.26 5.06a.48.48 0 0 0 .57.13z" fill="#fafafa" opacity=".6" transform="translate(-6854.48 -6822.8)"/><path d="m7161.89 6963.27c.11.92-.29 1.75-.89 1.82s-1.21-.62-1.32-1.56.29-1.75.9-1.82 1.2.62 1.31 1.56z" fill="#263238" transform="translate(-6854.48 -6822.8)"/><path d="m7151.33 6964.55c.13.94-.29 1.76-.89 1.83s-1.2-.63-1.31-1.55.29-1.75.89-1.84 1.18.58 1.31 1.56z" fill="#263238" transform="translate(-6854.48 -6822.8)"/><path d="m7150.3 6963-2.32-.37s1.37 1.63 2.32.37z" fill="#263238" transform="translate(-6854.48 -6822.8)"/><path d="m7154.33 6965.82a25.44 25.44 0 0 1 -2.61 6.37 4.15 4.15 0 0 0 3.41.22z" fill="#a24e3f" transform="translate(-6854.48 -6822.8)"/><path d="m7158.83 6975.68a.28.28 0 0 1 -.28-.24.3.3 0 0 1 .25-.31 7.46 7.46 0 0 0 5.67-3.62.28.28 0 0 1 .37-.14.28.28 0 0 1 .12.37 7.87 7.87 0 0 1 -6.1 3.94z" fill="#263238" transform="translate(-6854.48 -6822.8)"/><path d="m7163.2 6960a.54.54 0 0 1 -.36-.14 4.34 4.34 0 0 0 -3.85-1.06.55.55 0 0 1 -.68-.38.55.55 0 0 1 .37-.67 5.51 5.51 0 0 1 4.87 1.29.55.55 0 0 1 0 .78.57.57 0 0 1 -.35.18z" fill="#263238" transform="translate(-6854.48 -6822.8)"/><path d="m7145.88 6960.28a1 1 0 0 1 -.25 0 .58.58 0 0 1 -.23-.75 5.53 5.53 0 0 1 4-3.05.56.56 0 0 1 .61.48.55.55 0 0 1 -.47.62 4.34 4.34 0 0 0 -3.15 2.45.58.58 0 0 1 -.51.25z" fill="#263238" transform="translate(-6854.48 -6822.8)"/><path d="m7214.68 7000.41.53.66.64.79c.45.52.9 1.06 1.38 1.58 1 1.07 2 2.12 3 3.11a73.41 73.41 0 0 0 6.59 5.74 87.85 87.85 0 0 0 7.27 5c1.25.75 2.54 1.47 3.84 2.18l2 1 .95.49c.24.11.47.22.69.3a6.08 6.08 0 0 0 2.22.46 3.52 3.52 0 0 0 1.94-.72 15.14 15.14 0 0 0 4.26-5.69 47.9 47.9 0 0 0 3.08-8.28 88.57 88.57 0 0 0 2.11-8.83l5.89.37a59.73 59.73 0 0 1 -2.87 20 27.88 27.88 0 0 1 -2.28 5.08 19.11 19.11 0 0 1 -3.91 4.9 13.79 13.79 0 0 1 -6.62 3.24 14.9 14.9 0 0 1 -7.14-.49c-.54-.16-1-.35-1.55-.54l-1.2-.5-2.35-1c-1.56-.7-3.09-1.38-4.59-2.24a76.22 76.22 0 0 1 -8.71-5.36 80.26 80.26 0 0 1 -7.94-6.55c-1.24-1.18-2.44-2.44-3.61-3.74-.58-.66-1.16-1.38-1.71-2l-.85-1.09c-.29-.39-.51-.69-.89-1.24z" fill="#b97964" transform="translate(-6854.48 -6822.8)"/><path d="m369.99 184.88-8.64 14.5-4.21-3.97 7.98-14.53z" fill="#263238"/><g transform="translate(-6854.48 -6822.8)"><path d="m7205.57 6989.63c5-.08 17 14.16 17 14.16l-10.49 18.26s-13.36-11.77-13.34-18.22c.04-6.72 1.17-14.03 6.83-14.2z" fill="#4a00c6"/><path d="m7205.57 6989.63c5-.08 17 14.16 17 14.16l-10.49 18.26s-13.36-11.77-13.34-18.22c.04-6.72 1.17-14.03 6.83-14.2z" opacity=".3"/><path d="m7326.22 7265.64a1.84 1.84 0 0 1 -1.05-.4.94.94 0 0 1 -.4-.86c.13-1.49 3.87-3.45 4.28-3.67a.26.26 0 0 1 .4.29c-.43 1.49-1.38 4.06-2.76 4.51a1.57 1.57 0 0 1 -.47.13zm2.5-4.14c-1.46.82-3.33 2.12-3.4 2.89a.37.37 0 0 0 .2.38 1 1 0 0 0 1 .23c.76-.22 1.56-1.52 2.21-3.48z" fill="#4a00c6"/><path d="m7325.71 7262a2.79 2.79 0 0 1 -1.73-.43 1 1 0 0 1 -.22-1.18 1.41 1.41 0 0 1 .9-.85c1.6-.53 4.53 1.08 4.65 1.15a.28.28 0 0 1 .15.25.28.28 0 0 1 -.13.23 8.27 8.27 0 0 1 -3.62.83zm-.29-2a1.63 1.63 0 0 0 -.58.08.89.89 0 0 0 -.57.52.79.79 0 0 0 0 .57c.63.52 2.92.3 4.23-.24a8.53 8.53 0 0 0 -3.08-.93z" fill="#4a00c6"/><path d="m7197.93 7309.15a4.59 4.59 0 0 1 -2.76-.65 1.74 1.74 0 0 1 -.71-1.38.81.81 0 0 1 .35-.76c1.25-.85 6 1.3 6.9 1.73a.27.27 0 0 1 .15.29.25.25 0 0 1 -.21.23 18.05 18.05 0 0 1 -3.72.54zm-2.21-2.39a1 1 0 0 0 -.54.11.27.27 0 0 0 -.11.27 1.21 1.21 0 0 0 .48.92c1.09.83 3.69.51 5.21.23a17.81 17.81 0 0 0 -5-1.53z" fill="#4a00c6"/><path d="m7201.65 7308.67h-.11c-1.56-.64-4.7-3.16-4.52-4.47 0-.29.22-.65.93-.74 2.76-.35 3.92 4.68 4 4.89a.3.3 0 0 1 -.09.28.34.34 0 0 1 -.21.04zm-3.45-4.68h-.2c-.29 0-.45.12-.47.26-.09.75 2.07 2.76 3.68 3.62-.35-1.19-1.37-3.88-3-3.88z" fill="#4a00c6"/><path d="m7160.86 6961.72-2.32-.37s1.36 1.65 2.32.37z" fill="#263238"/><path d="m7074.52 6865.28c-2.44 3.07-15.9 6.67-26.6 5.68-3.68 24.17 9.2 52 9.2 52s27.94-3.32 28.63-14.83-11.23-42.85-11.23-42.85z" fill="#4a00c6"/><path d="m7074.52 6865.28c-2.44 3.07-15.9 6.67-26.6 5.68-3.68 24.17 9.2 52 9.2 52s27.94-3.32 28.63-14.83-11.23-42.85-11.23-42.85z" fill="#fafafa" opacity=".4"/><path d="m7286.07 6846.89c2.5 3.52 15.18 7 25 5.19 5.26 28.62-4.49 62.62-4.49 62.62s-26-2.31-27.6-16 7.09-51.81 7.09-51.81z" fill="#4a00c6"/><path d="m7286.07 6846.89c2.5 3.52 15.18 7 25 5.19 5.26 28.62-4.49 62.62-4.49 62.62s-26-2.31-27.6-16 7.09-51.81 7.09-51.81z" fill="#fafafa" opacity=".4"/><path d="m7102.89 7094.78a1.51 1.51 0 0 1 -1.72-1.28l-32.78-232.5a1.55 1.55 0 0 1 1.33-1.74h.05a1.53 1.53 0 0 1 1.73 1.31l32.77 232.43a1.54 1.54 0 0 1 -1.33 1.73z" fill="#4a00c6"/><path d="m7102.89 7094.78a1.51 1.51 0 0 1 -1.72-1.28l-32.78-232.5a1.55 1.55 0 0 1 1.33-1.74h.05a1.53 1.53 0 0 1 1.73 1.31l32.77 232.43a1.54 1.54 0 0 1 -1.33 1.73z" opacity=".2"/><path d="m7259.08 7077.5a1.54 1.54 0 0 0 1.73-1.33v-.05l32.84-232.49a1.52 1.52 0 0 0 -1.29-1.74 1.55 1.55 0 0 0 -1.74 1.33v.05l-32.85 232.49a1.55 1.55 0 0 0 1.31 1.74z" fill="#4a00c6"/><path d="m7259.08 7077.5a1.54 1.54 0 0 0 1.73-1.33v-.05l32.84-232.49a1.52 1.52 0 0 0 -1.29-1.74 1.55 1.55 0 0 0 -1.74 1.33v.05l-32.85 232.49a1.55 1.55 0 0 0 1.31 1.74z" opacity=".2"/><path d="m7067.08 6865.89 6.21 45.65a2 2 0 0 0 2.26 1.74 1.73 1.73 0 0 0 .31-.07c13.88-4 91.08-23.79 209.68-11.17a2 2 0 0 0 2.2-1.62c2.24-11.56 6.09-44.51 7.07-52.94a2 2 0 0 0 -1.77-2.25c-15.92-2-124.63-14.06-224.57 18.45a2.06 2.06 0 0 0 -1.39 2.21z" fill="#4a00c6"/><path d="m7067.08 6865.89 6.21 45.65a2 2 0 0 0 2.26 1.74 1.73 1.73 0 0 0 .31-.07c13.88-4 91.08-23.79 209.68-11.17a2 2 0 0 0 2.2-1.62c2.24-11.56 6.09-44.51 7.07-52.94a2 2 0 0 0 -1.77-2.25c-15.92-2-124.63-14.06-224.57 18.45a2.06 2.06 0 0 0 -1.39 2.21z" fill="#fafafa" opacity=".6"/><path d="m7087 6873.87 6.55-1.38 4.62 12 1.17-13.2 6.53-1.38 5.73 11.79.08-13 6.51-1.38-.85 23.32-6.75 1.38-6.47-13.27-1.38 14.85-6.74 1.4z" fill="#fafafa"/><path d="m7121.39 6867.13 18.61-2.76.61 4.81-11.65 1.71.46 3.58 10.8-1.58.58 4.59-10.8 1.59.5 4.46 12-1.75.65 5.1-19 2.76z" fill="#fafafa"/><path d="m7144.74 6863.83 7-.75 1.49 17.07 10.89-1.18.5 5.52-17.94 1.94z" fill="#fafafa"/><path d="m7181.64 6874 6.23 1.38a11.64 11.64 0 0 1 -1.73 4.47 8.74 8.74 0 0 1 -3.2 2.9 12.56 12.56 0 0 1 -5 1.24 14.41 14.41 0 0 1 -6.08-.65 9.29 9.29 0 0 1 -4.14-3.5 12.72 12.72 0 0 1 -2.06-6.82 12.06 12.06 0 0 1 2.54-8.87 11.5 11.5 0 0 1 8.28-3.63 11.27 11.27 0 0 1 6.81 1.24 10 10 0 0 1 3.91 5.08l-6.11 1.82a5 5 0 0 0 -.76-1.48 3.93 3.93 0 0 0 -1.57-1.13 4.43 4.43 0 0 0 -5.52 1.88 8.21 8.21 0 0 0 -.73 4.55q.18 3.76 1.38 5.09a3.84 3.84 0 0 0 3.28 1.18 4 4 0 0 0 3-1.38 7.22 7.22 0 0 0 1.47-3.37z" fill="#fafafa"/><path d="m7190.42 6871.31a12 12 0 0 1 3-8.77 11.82 11.82 0 0 1 8.57-3.4 11.68 11.68 0 0 1 8.76 2.76 11.34 11.34 0 0 1 3.16 8.45 14.16 14.16 0 0 1 -1.24 6.6 9.85 9.85 0 0 1 -3.82 4.14 12.78 12.78 0 0 1 -6.28 1.62 14 14 0 0 1 -6.36-1 9.23 9.23 0 0 1 -4.14-3.75 12.79 12.79 0 0 1 -1.65-6.65zm7-.19a7.47 7.47 0 0 0 1.38 4.91 4.12 4.12 0 0 0 3.47 1.38 4.39 4.39 0 0 0 3.48-1.58 8.55 8.55 0 0 0 1.17-5.34 6.87 6.87 0 0 0 -1.38-4.65 4.21 4.21 0 0 0 -3.51-1.38 4.33 4.33 0 0 0 -3.39 1.61 7.79 7.79 0 0 0 -1.22 5z" fill="#fafafa"/><path d="m7218.15 6859.09h9.2l3.17 13.89 3.91-13.8 9.21.09-.64 22.73h-5.74l.47-17.38-4.88 17.34h-5.19l-3.94-17.42-.46 17.37h-5.75z" fill="#fafafa"/><path d="m7248.69 6859.49 18.72.84-.29 4.86-11.73-.53-.23 3.69 10.87.48-.29 4.57-10.87-.48-.28 4.49 12.07.53-.34 5.16-19.07-.86z" fill="#fafafa"/><path d="m6965.5 7465.28-18.89-57.74h13.86l16.41 51.14h-6.88l17.16-51.14h12.37l16.5 51.14h-6.68l16.82-51.14h12.79l-18.96 57.74h-14.35l-14.6-44.87h3.79l-15 44.87z" fill="#fd0166"/><path d="m7064.15 7465.94a28.55 28.55 0 0 1 -13.32-3 21.84 21.84 0 0 1 -8.87-8.13 22.13 22.13 0 0 1 -3.13-11.75 22.6 22.6 0 0 1 3.09-11.84 22 22 0 0 1 8.45-8.08 26.44 26.44 0 0 1 23.88-.16 20.68 20.68 0 0 1 8.29 7.91 23.75 23.75 0 0 1 3.05 12.34c0 .49 0 1.06-.08 1.69s-.11 1.22-.16 1.77h-36.05v-7.51h29.28l-4.95 2.23a12.26 12.26 0 0 0 -1.4-6 10.22 10.22 0 0 0 -3.88-4 11.23 11.23 0 0 0 -5.77-1.44 11.46 11.46 0 0 0 -5.81 1.44 10 10 0 0 0 -3.92 4 12.7 12.7 0 0 0 -1.4 6.15v2a12.48 12.48 0 0 0 1.6 6.39 10.54 10.54 0 0 0 4.54 4.2 15.31 15.31 0 0 0 6.89 1.45 16.83 16.83 0 0 0 6.23-1.07 15.25 15.25 0 0 0 4.9-3.22l6.85 7.42a20 20 0 0 1 -7.67 5.32 28.34 28.34 0 0 1 -10.64 1.89z" fill="#fd0166"/><path d="m7094.17 7465.28v-61.2h12.83v61.2z" fill="#fd0166"/><path d="m7140.44 7465.94a27.24 27.24 0 0 1 -12.78-2.93 22 22 0 0 1 -8.79-8.12 22.35 22.35 0 0 1 8.79-31.72 27.24 27.24 0 0 1 12.78-2.93 24.46 24.46 0 0 1 12.21 2.93 17.86 17.86 0 0 1 7.67 8.37l-10 5.36a11.6 11.6 0 0 0 -4.33-4.61 11.2 11.2 0 0 0 -5.65-1.49 11.91 11.91 0 0 0 -5.94 1.49 10.7 10.7 0 0 0 -4.16 4.2 15 15 0 0 0 0 13.2 10.73 10.73 0 0 0 4.16 4.21 11.9 11.9 0 0 0 5.94 1.48 11.47 11.47 0 0 0 5.65-1.44 11.18 11.18 0 0 0 4.33-4.66l10 5.44a17.91 17.91 0 0 1 -7.67 8.29 24.46 24.46 0 0 1 -12.21 2.93z" fill="#fd0166"/><path d="m7188.28 7465.94a26 26 0 0 1 -12.58-3 22.67 22.67 0 0 1 -8.66-8.13 23.53 23.53 0 0 1 0-23.59 22.39 22.39 0 0 1 8.66-8.08 28.39 28.39 0 0 1 25.12 0 22 22 0 0 1 8.66 8 22.58 22.58 0 0 1 -8.66 31.76 26.07 26.07 0 0 1 -12.54 3.04zm0-10.56a11.3 11.3 0 0 0 5.78-1.48 10.62 10.62 0 0 0 4-4.25 15.37 15.37 0 0 0 0-13.16 10.68 10.68 0 0 0 -4-4.2 11.94 11.94 0 0 0 -11.55 0 10.85 10.85 0 0 0 -4.08 4.2 14.91 14.91 0 0 0 0 13.16 10.78 10.78 0 0 0 4.08 4.25 11.27 11.27 0 0 0 5.77 1.48z" fill="#fd0166"/><path d="m7278 7420.24a20 20 0 0 1 9.36 2.11 15.13 15.13 0 0 1 6.44 6.43 23.23 23.23 0 0 1 2.35 11.09v25.41h-12.85v-23.43q0-5.36-2.23-7.91a7.84 7.84 0 0 0 -6.27-2.56 9.85 9.85 0 0 0 -5 1.28 8.57 8.57 0 0 0 -3.46 3.83 14.92 14.92 0 0 0 -1.24 6.52v22.27h-12.86v-23.43q0-5.36-2.19-7.91a7.73 7.73 0 0 0 -6.23-2.56 9.85 9.85 0 0 0 -5 1.28 8.57 8.57 0 0 0 -3.46 3.83 14.92 14.92 0 0 0 -1.24 6.52v22.27h-12.87v-44.38h12.29v12.1l-2.31-3.55a16 16 0 0 1 6.56-6.89 19.74 19.74 0 0 1 9.69-2.35 18.56 18.56 0 0 1 10.68 3.1 15 15 0 0 1 6.06 9.44l-4.53-1.24a17.79 17.79 0 0 1 7.13-8.25 20.92 20.92 0 0 1 11.18-3.02z" fill="#fd0166"/><path d="m7330.07 7465.94a28.55 28.55 0 0 1 -13.32-3 21.84 21.84 0 0 1 -8.87-8.13 22.13 22.13 0 0 1 -3.13-11.75 22.6 22.6 0 0 1 3.09-11.84 22 22 0 0 1 8.45-8.08 26.44 26.44 0 0 1 23.88-.16 20.75 20.75 0 0 1 8.29 7.91 23.85 23.85 0 0 1 3.05 12.34c0 .49 0 1.06-.08 1.69s-.11 1.22-.17 1.77h-36v-7.51h29.28l-4.95 2.23a12.37 12.37 0 0 0 -1.4-6 10.29 10.29 0 0 0 -3.88-4 11.26 11.26 0 0 0 -5.77-1.44 11.52 11.52 0 0 0 -5.82 1.44 10.07 10.07 0 0 0 -3.91 4 12.7 12.7 0 0 0 -1.41 6.15v2a12.48 12.48 0 0 0 1.6 6.44 10.49 10.49 0 0 0 4.54 4.2 15.31 15.31 0 0 0 6.89 1.45 16.74 16.74 0 0 0 6.22-1.07 15.19 15.19 0 0 0 4.91-3.22l6.85 7.42a20 20 0 0 1 -7.67 5.32 28.34 28.34 0 0 1 -10.67 1.84z" fill="#fd0166"/><path d="m7378.15 7431.79v-9.9h30.77v9.9zm23.43 34.15q-7.84 0-12.21-4t-4.37-11.94v-38.93h12.87v38.76a5.94 5.94 0 0 0 1.48 4.33 5.37 5.37 0 0 0 4 1.53 8.29 8.29 0 0 0 5.2-1.65l3.46 9.07a14.1 14.1 0 0 1 -4.74 2.11 23.54 23.54 0 0 1 -5.69.72z" fill="#fd0166"/><path d="m7439 7465.94a25.94 25.94 0 0 1 -12.57-3 22.62 22.62 0 0 1 -8.67-8.13 23.53 23.53 0 0 1 0-23.59 22.35 22.35 0 0 1 8.67-8.08 28.36 28.36 0 0 1 25.11 0 22 22 0 0 1 8.66 8 22.58 22.58 0 0 1 -8.66 31.76 26 26 0 0 1 -12.54 3.04zm0-10.56a11.3 11.3 0 0 0 5.78-1.48 10.62 10.62 0 0 0 4-4.25 15.37 15.37 0 0 0 0-13.16 10.68 10.68 0 0 0 -4-4.2 11.94 11.94 0 0 0 -11.55 0 10.85 10.85 0 0 0 -4.08 4.2 14.91 14.91 0 0 0 0 13.16 10.78 10.78 0 0 0 4.08 4.25 11.27 11.27 0 0 0 5.77 1.48z" fill="#fd0166"/><path d="m6899.77 7554.26 25.73-57.74h13.2l25.81 57.74h-14l-21.11-51h5.28l-21.2 51zm12.86-12.38 3.55-10.14h29.69l3.63 10.14z" fill="#fd0166"/><path d="m6970.53 7554.26v-57.74h25a32.6 32.6 0 0 1 13.36 2.51 19.64 19.64 0 0 1 8.66 7.22 20.21 20.21 0 0 1 3.05 11.22 19.8 19.8 0 0 1 -3.05 11.09 19.42 19.42 0 0 1 -8.66 7.14 33 33 0 0 1 -13.36 2.47h-17.53l5.94-5.85v21.94zm13.37-20.46-5.94-6.27h16.82q6.2 0 9.24-2.68a10.5 10.5 0 0 0 0-14.8q-3-2.64-9.24-2.64h-16.78l5.94-6.35zm23.34 20.46-14.44-20.95h14.27l14.6 20.95z" fill="#fd0166"/><path d="m7048.48 7554.26-24.91-57.74h14.43l21.78 51.14h-8.5l22.11-51.14h13.28l-25 57.74z" fill="#fd0166"/><path d="m7129.31 7543.53h31.42v10.73h-44.73v-57.74h43.63v10.72h-30.35zm-1-23.75h27.79v10.39h-27.79z" fill="#fd0166"/><path d="m7164.28 7554.26 19.88-26.07-.25 7.1-19.05-25.41h14.43l12 16.58-5.44.16 12.45-16.74h13.7l-19.1 25.12v-6.93l19.8 26.15h-14.6l-12.62-17.66 5.36.75-12.54 16.91z" fill="#fd0166"/><path d="m7239 7554.92a27.25 27.25 0 0 1 -12.79-2.93 21.89 21.89 0 0 1 -8.78-8.13 22.36 22.36 0 0 1 8.78-31.71 27.25 27.25 0 0 1 12.79-2.93 24.45 24.45 0 0 1 12.2 2.93 17.76 17.76 0 0 1 7.67 8.37l-10 5.36a11.5 11.5 0 0 0 -4.33-4.62 11.17 11.17 0 0 0 -5.65-1.48 11.86 11.86 0 0 0 -5.93 1.48 10.82 10.82 0 0 0 -4.17 4.21 15 15 0 0 0 0 13.2 10.79 10.79 0 0 0 4.17 4.2 11.87 11.87 0 0 0 5.93 1.49 11.44 11.44 0 0 0 5.65-1.44 11.15 11.15 0 0 0 4.33-4.67l10 5.45a17.86 17.86 0 0 1 -7.67 8.29 24.45 24.45 0 0 1 -12.2 2.93z" fill="#fd0166"/><path d="m7266 7554.26v-61.21h12.86v61.21z" fill="#fd0166"/><path d="m7309.53 7554.92a21.92 21.92 0 0 1 -9.86-2.15 15.1 15.1 0 0 1 -6.72-6.56 23.39 23.39 0 0 1 -2.39-11.25v-25.08h12.86v23.18c0 3.68.79 6.39 2.35 8.12a8.47 8.47 0 0 0 6.64 2.6 10.64 10.64 0 0 0 5.28-1.28 8.78 8.78 0 0 0 3.63-4 15.12 15.12 0 0 0 1.32-6.72v-21.94h12.87v44.38h-12.21v-12.21l2.23 3.55a15.25 15.25 0 0 1 -6.56 7 19.55 19.55 0 0 1 -9.44 2.36z" fill="#fd0166"/><path d="m7362.4 7554.92a43.13 43.13 0 0 1 -10.93-1.37 26.73 26.73 0 0 1 -8.29-3.42l4.29-9.24a28.35 28.35 0 0 0 7.22 3.1 29.47 29.47 0 0 0 8.2 1.19c3 0 5.07-.35 6.31-1.07a3.29 3.29 0 0 0 1.86-3 2.52 2.52 0 0 0 -1.45-2.35 12.82 12.82 0 0 0 -3.83-1.2c-1.6-.27-3.34-.54-5.24-.82s-3.81-.65-5.73-1.11a19.25 19.25 0 0 1 -5.28-2.11 10.81 10.81 0 0 1 -3.84-3.79 13.16 13.16 0 0 1 1-13.61 16.06 16.06 0 0 1 7.06-5.07 29.54 29.54 0 0 1 11.05-1.86 44.85 44.85 0 0 1 9.24 1 25 25 0 0 1 7.83 2.89l-4.29 9.15a21.6 21.6 0 0 0 -6.47-2.59 29.84 29.84 0 0 0 -6.31-.71q-4.29 0-6.27 1.16a3.4 3.4 0 0 0 -2 3 2.67 2.67 0 0 0 1.44 2.47 13.27 13.27 0 0 0 3.84 1.32q2.39.49 5.24.87a49.84 49.84 0 0 1 5.73 1.11 20.9 20.9 0 0 1 5.22 2.14 11 11 0 0 1 3.83 3.71 11.32 11.32 0 0 1 1.49 6.14 11.54 11.54 0 0 1 -2.48 7.3 16.25 16.25 0 0 1 -7.13 5 31.35 31.35 0 0 1 -11.31 1.77z" fill="#fd0166"/><path d="m7397.7 7503.69a8.15 8.15 0 0 1 -5.78-2.06 7 7 0 0 1 0-10.22 8.16 8.16 0 0 1 5.78-2.07 8.48 8.48 0 0 1 5.77 1.94 6.3 6.3 0 0 1 2.23 5 7.05 7.05 0 0 1 -2.19 5.32 8 8 0 0 1 -5.81 2.09zm-6.44 50.57v-44.38h12.87v44.38z" fill="#fd0166"/><path d="m7428.13 7554.26-18.64-44.38h13.28l15.51 38.19h-6.6l16.08-38.19h12.38l-18.73 44.38z" fill="#fd0166"/><path d="m7486.2 7554.92a28.55 28.55 0 0 1 -13.32-3 21.91 21.91 0 0 1 -8.87-8.13 22.13 22.13 0 0 1 -3.13-11.75 22.58 22.58 0 0 1 3.09-11.84 21.91 21.91 0 0 1 8.46-8.08 26.46 26.46 0 0 1 23.87-.17 20.71 20.71 0 0 1 8.29 7.92 23.74 23.74 0 0 1 3.06 12.33c0 .5 0 1.06-.09 1.69s-.11 1.23-.16 1.78h-36v-7.51h29.28l-4.94 2.23a12.26 12.26 0 0 0 -1.41-6 10.13 10.13 0 0 0 -3.87-4 11.3 11.3 0 0 0 -5.78-1.45 11.49 11.49 0 0 0 -5.81 1.45 10 10 0 0 0 -3.92 4 12.68 12.68 0 0 0 -1.4 6.14v2a12.45 12.45 0 0 0 1.61 6.4 10.46 10.46 0 0 0 4.53 4.2 15.44 15.44 0 0 0 6.89 1.45 16.63 16.63 0 0 0 6.23-1.08 15.2 15.2 0 0 0 4.91-3.21l6.84 7.42a19.92 19.92 0 0 1 -7.67 5.32 28.34 28.34 0 0 1 -10.69 1.89z" fill="#fd0166"/></g><text font-family="Montserrat-Medium, Montserrat" font-size="35.35" font-weight="500" transform="translate(46.2 785.41)">service not available your location</text></svg>