<svg width="31" height="27" viewBox="0 0 31 27" fill="none" xmlns="http://www.w3.org/2000/svg">
<path fill-rule="evenodd" clip-rule="evenodd" d="M0.00120143 3.10196C0.123742 5.29881 0.74901 6.65876 1.6647 7.49681C1.21761 7.8298 0.958401 8.38875 1.05357 8.99308C1.52081 11.9602 2.68895 18.2362 5.08357 25.3105C5.55949 26.7166 7.46034 26.7166 7.93627 25.3105C10.3308 18.2362 11.499 11.9602 11.9663 8.99308C12.0614 8.38875 11.8022 7.8298 11.3551 7.49673C12.2708 6.65876 12.896 5.29881 13.0186 3.10196C13.0437 2.65183 12.6739 2.28105 12.2231 2.2875C10.894 2.3066 9.83842 2.38734 9.0149 2.66416C8.67498 1.76749 7.98868 0.92091 6.95584 0.14808C6.692 -0.04936 6.32775 -0.04936 6.06391 0.14808C5.03948 0.914632 4.35588 1.75369 4.01319 2.64228C3.21347 2.40644 2.16624 2.31288 0.798774 2.28897C0.347991 2.28105 -0.0239092 2.65183 0.00120143 3.10196ZM8.04533 4.71252L7.48826 3.24286C7.33397 2.836 7.0325 2.37844 6.50988 1.89582C5.99272 2.37338 5.69215 2.82636 5.53647 3.22988L4.99491 4.63399L3.55134 4.20826C3.1255 4.08271 2.54402 3.99887 1.72708 3.95422C1.96979 5.52821 2.55318 6.19344 3.08501 6.53745C3.84545 7.02921 4.95344 7.17885 6.48547 7.1804H6.53428C8.06639 7.17885 9.17433 7.02921 9.93475 6.53745C10.4671 6.19311 11.0511 5.52698 11.2934 3.94973C10.5017 3.9912 9.94593 4.07365 9.53515 4.21169L8.04533 4.71252ZM2.67806 8.81308H10.3418C10.1079 10.2885 9.70185 12.5676 9.06029 15.3438H5.69345V16.9765H8.66901C8.10517 19.2478 7.39512 21.7786 6.50988 24.4297C6.22073 23.5635 5.95019 22.7101 5.69737 21.8745H6.50979V20.2418H5.21883C4.43719 17.4875 3.85238 14.9748 3.42489 12.8948H5.69345V11.2621H3.10358C2.92311 10.3019 2.78318 9.47635 2.67806 8.81308Z" fill="white"/>
<path d="M27.1163 16.1808C27.5537 16.2902 27.8196 16.7334 27.7102 17.1708C27.229 19.096 25.7761 20.5488 23.8509 21.0301C23.4135 21.1395 22.9703 20.8735 22.861 20.4361C22.7516 19.9987 23.0176 19.5556 23.455 19.4462C24.7952 19.1111 25.7913 18.115 26.1264 16.7748C26.2357 16.3374 26.6789 16.0715 27.1163 16.1808Z" fill="white"/>
<path fill-rule="evenodd" clip-rule="evenodd" d="M22.5511 10.4702C21.6459 8.35348 21.8028 6.10487 23.4134 4.49431L22.2589 3.33984C20.3573 5.24135 20.0271 7.72963 20.6649 10.0158C16.9296 8.32581 13.04 11.4337 13.04 16.1622C13.04 20.6707 17.0604 24.3256 22.0198 24.3256C26.9791 24.3256 30.9995 20.6707 30.9995 16.1622C30.9995 11.0844 26.5142 7.87551 22.5511 10.4702ZM22.0198 12.9468L20.9999 12.1309C19.4832 10.9174 17.9889 10.9849 16.8573 11.6838C15.6608 12.4228 14.6727 14.005 14.6727 16.1622C14.6727 19.626 17.8122 22.6929 22.0198 22.6929C26.2274 22.6929 29.3669 19.626 29.3669 16.1622C29.3669 14.005 28.3788 12.4228 27.1823 11.6838C26.0507 10.9849 24.5564 10.9174 23.0397 12.1309L22.0198 12.9468Z" fill="white"/>
<path d="M23.6524 7.99577C26.1014 7.99577 27.7341 6.36308 27.7341 3.91406C25.285 3.91406 23.6524 5.54674 23.6524 7.99577Z" fill="white"/>
</svg>
